<?xml version="1.0" encoding="utf-8"?>
<!-- Generator: Adobe Illustrator 25.2.0, SVG Export Plug-In . SVG Version: 6.00 Build 0)  -->
<svg version="1.1" id="Layer_1" xmlns="http://www.w3.org/2000/svg" xmlns:xlink="http://www.w3.org/1999/xlink" x="0px" y="0px"
	 viewBox="0 0 953 953" style="enable-background:new 0 0 953 953;" xml:space="preserve">
<style type="text/css">
	.st0{clip-path:url(#SVGID_1_);}
	.st1{fill-rule:evenodd;clip-rule:evenodd;fill:#002040;fill-opacity:0;}
	.st2{fill-rule:evenodd;clip-rule:evenodd;fill:#002040;}
</style>
<g>
	<defs>
		<rect id="SVGID_3_" width="953" height="953"/>
	</defs>
	<clipPath id="SVGID_1_">
		<use xlink:href="#SVGID_3_"  style="overflow:visible;"/>
	</clipPath>
	<g class="st0">
		<path class="st1" d="M0,0h953v953H0V0z"/>
		<path class="st2" d="M91.5,478.3L91.5,478.3L91.5,478.3c11.5,0,22.4-4.6,30.5-12.7s12.7-19.1,12.7-30.5V91.2
			c0-23.9-19.3-43.2-43.2-43.2l0,0l0,0c-23.9,0-43.2,19.3-43.2,43.2v343.8l0,0C48.3,458.9,67.6,478.3,91.5,478.3z"/>
		<path class="st2" d="M549.2,357.3L549.2,357.3L549.2,357.3c0,5.9,1.8,11.6,5,15.8c3.2,4.2,7.5,6.5,12,6.5H701c9.4,0,17-10,17-22.3
			l0,0l0,0c0-12.3-7.6-22.3-17-22.3H566.1l0,0C556.8,335,549.2,345,549.2,357.3z"/>
		<path class="st2" d="M436.7,435.1v4.1l0,0c0,10.4-4.1,20.3-11.4,27.6c-7.3,7.3-17.3,11.4-27.6,11.4H91.5
			c-23.9,0-43.2-19.3-43.2-43.2v-4.1c0-21.6,17.5-39.1,39.1-39.1h306.1l0,0C417.3,391.9,436.7,411.2,436.7,435.1L436.7,435.1z"/>
		<path class="st2" d="M656.1,55L656.1,55L656.1,55c9.5,6.4,16.1,16.4,18.3,27.7c2.2,11.3-0.2,23-6.6,32.6L437.2,459.1
			c-13.3,19.9-40.2,25.2-60,11.7l0,0l0,0c-19.8-13.4-25-40.4-11.7-60.3L596.1,66.7l0,0C609.5,46.8,636.3,41.6,656.1,55z"/>
		<path class="st2" d="M615,55L615,55L615,55c-9.5,6.4-16.1,16.3-18.3,27.6c-2.2,11.2,0.2,22.9,6.6,32.4l231.2,342.8
			c13.3,19.8,40.2,25,60,11.7l0,0l0,0c19.8-13.3,25-40.2,11.7-60L675,66.6l0,0C661.6,46.9,634.8,41.6,615,55z"/>
		<path class="st2" d="M899.8,499.1L899.8,499.1L899.8,499.1c6.6,9.4,9.1,21,7.2,32.3c-2,11.3-8.4,21.3-17.8,27.9L677.5,707.5
			c-19.5,13.7-46.5,8.9-60.2-10.6l0,0l0,0c-13.7-19.5-8.9-46.5,10.6-60.2l211.7-148.2l0,0C859.2,474.8,886.1,479.5,899.8,499.1z"/>
		<path class="st2" d="M646.9,912L646.9,912L646.9,912c11.5,0,22.4-4.6,30.5-12.7c8.1-8.1,12.7-19.1,12.7-30.5V704.3
			c0-23.9-19.3-43.2-43.2-43.2l0,0l0,0c-23.9,0-43.2,19.3-43.2,43.2v164.5l0,0C603.7,892.7,623,912,646.9,912z"/>
		<path class="st2" d="M91.5,911.1L91.5,911.1L91.5,911.1c11.5,0,22.4-4.5,30.5-12.6c8.1-8.1,12.7-19,12.7-30.4V526.9
			c0-23.8-19.3-43-43.2-43l0,0l0,0c-23.9,0-43.2,19.3-43.2,43v341.2l0,0C48.3,891.9,67.6,911.1,91.5,911.1z"/>
		<path class="st2" d="M394.7,501.4L394.7,501.4L394.7,501.4c-6.6,9.4-9.1,21-7.2,32.3c2,11.3,8.4,21.3,17.8,27.9l212.2,148.6
			c19.5,13.7,46.5,8.9,60.2-10.6l0,0l0,0c13.7-19.5,8.9-46.5-10.6-60.2L454.8,490.8l0,0C435.3,477.1,408.4,481.9,394.7,501.4z"/>
		<path class="st2" d="M426.6,912.3L426.6,912.3L426.6,912.3c11.5,0,22.4-4.6,30.5-12.7c8.1-8.1,12.7-19.1,12.7-30.5v-344
			c0-23.9-19.3-43.2-43.2-43.2l0,0l0,0c-23.9,0-43.2,19.3-43.2,43.2v344l0,0C383.4,893,402.7,912.3,426.6,912.3z"/>
		<path class="st2" d="M453.5,495.4L453.5,495.4L453.5,495.4c8.4,7.8,13.3,18.6,13.8,30.1s-3.7,22.6-11.5,31L138,898.2
			c-16.2,17.5-43.6,18.5-61,2.2l0,0l0,0c-17.5-16.2-18.5-43.6-2.2-61l317.7-341.8l0,0C408.7,480.2,436,479.2,453.5,495.4z"/>
	</g>
</g>
</svg>
